<svg width="56" height="35" viewBox="0 0 56 35" fill="none" xmlns="http://www.w3.org/2000/svg">
<rect x="22.3818" y="10.4014" width="15" height="14" rx="7" fill="#699635" fill-opacity="0.8"/>
<rect x="18.3818" y="5.40137" width="23" height="23" rx="11.5" fill="#699635" fill-opacity="0.4"/>
<rect x="15.3818" y="2.40137" width="29" height="29" rx="14.5" fill="#699635" fill-opacity="0.1"/>
<g clip-path="url(#clip0_29428_4336)">
<path d="M38.5627 11.9398C38.5163 12.0359 38.4699 12.1319 38.422 12.2308C33.0345 12.2789 27.647 12.3269 22.0963 12.3763C22.0963 15.5934 22.0963 18.8105 22.0963 22.1251C22.4171 22.2909 22.6041 22.292 22.9608 22.2981C23.081 22.3006 23.2012 22.303 23.3251 22.3055C23.4552 22.3075 23.5852 22.3095 23.7192 22.3115C23.8524 22.3142 23.9857 22.3169 24.123 22.3196C24.5499 22.3282 24.9768 22.3359 25.4036 22.3433C25.9652 22.3532 26.5266 22.3639 27.0881 22.3752C27.2182 22.3771 27.3482 22.3791 27.4822 22.3811C27.6024 22.3836 27.7226 22.386 27.8465 22.3885C27.9525 22.3903 28.0586 22.3922 28.1678 22.394C28.4295 22.4161 28.4295 22.4161 28.711 22.5616C28.711 22.6576 28.711 22.7537 28.711 22.8526C20.3511 22.8526 11.9912 22.8526 3.378 22.8526C3.33155 22.6605 3.28511 22.4685 3.23726 22.2706C3.42303 22.2706 3.60881 22.2706 3.80021 22.2706C3.80021 19.2936 3.80021 16.3166 3.80021 13.2494C5.14709 13.2494 6.49396 13.2494 7.88165 13.2494C7.88165 12.8172 7.88165 12.3851 7.88165 11.9398C11.8196 11.9174 15.7576 11.8959 19.6956 11.8754C21.5239 11.8658 23.3523 11.856 25.1807 11.8455C26.7738 11.8364 28.367 11.8278 29.9602 11.8198C30.8041 11.8155 31.6481 11.811 32.4921 11.8059C33.2858 11.8011 34.0795 11.7969 34.8732 11.7933C35.1651 11.7919 35.457 11.7902 35.7489 11.7882C36.1463 11.7856 36.5436 11.7839 36.941 11.7824C37.0575 11.7814 37.174 11.7804 37.2941 11.7794C37.7545 11.7784 38.1227 11.7882 38.5627 11.9398Z" fill="#34A853"/>
<path d="M48.2659 11.8752C50.737 10.9939 50.6666 18.8104 50.6666 22.1249C50.9875 22.2908 49.8877 22.3878 50.2444 22.3939C50.3647 22.3963 50.0333 22.5615 51.8955 22.3054C50.0543 22.5586 49.8395 22.6938 51.9571 22.3639C51.357 22.4576 50.7605 22.5442 50.2444 22.6171C50.252 22.6172 50.2409 22.6187 50.2143 22.6213C49.8896 22.6671 49.5978 22.7073 49.3584 22.7403C49.4937 22.7371 49.6246 22.7338 49.7431 22.7305C49.769 22.7277 49.7953 22.7249 49.8222 22.722C49.8676 22.7172 49.9145 22.7121 49.9629 22.707C50.3898 22.7155 49.8175 22.6995 50.2444 22.707C50.3472 22.7088 50.2309 22.715 50.0053 22.7225C50.6688 22.7265 50.583 22.7532 50.4555 22.7815C50.3001 22.8159 50.0827 22.8525 51.0889 22.8525L48.6395 22.8525C48.2282 22.8639 48.0374 22.8624 47.9969 22.8525L31.9484 22.8525L31.8076 22.2704H32.3706V13.2492H36.452V11.9397C40.39 11.9173 44.1926 11.5759 48.2659 11.8752Z" fill="#34A853"/>
<path d="M22.9231 12.7951C23.0973 12.7953 23.0973 12.7953 23.275 12.7955C23.4078 12.7953 23.5406 12.7951 23.6775 12.7949C23.8243 12.7954 23.9712 12.796 24.1226 12.7965C24.2763 12.7965 24.4301 12.7965 24.5885 12.7964C25.0995 12.7965 25.6105 12.7977 26.1215 12.7988C26.4747 12.7991 26.8279 12.7993 27.1811 12.7994C28.0175 12.7999 28.8538 12.8011 29.6902 12.8025C30.9024 12.8046 32.1146 12.8054 33.3267 12.8063C35.0253 12.8077 36.7238 12.8105 38.4224 12.813C38.4224 15.838 38.4224 18.8631 38.4224 21.9798C33.1742 21.9798 27.9261 21.9798 22.5189 21.9798C22.516 20.4943 22.5131 19.0087 22.5101 17.4782C22.5088 17.0086 22.5075 16.5389 22.5062 16.0551C22.5058 15.6854 22.5054 15.3158 22.5051 14.9461C22.5048 14.8495 22.5044 14.7528 22.504 14.6533C22.503 14.3699 22.5029 14.0865 22.5029 13.8032C22.5026 13.6432 22.5023 13.4833 22.502 13.3185C22.5253 12.8222 22.5253 12.8222 22.9231 12.7951Z" fill="#34A853"/>
<path d="M54.1853 10.7757C54.1913 11.0181 54.191 11.2608 54.1853 11.5032C53.9405 11.7563 53.5951 11.7028 53.2617 11.7305C53.0481 11.7488 53.0481 11.7488 52.8301 11.7675C52.72 11.7763 52.6099 11.7851 52.4964 11.7942C52.5168 11.9118 52.5371 12.0294 52.558 12.1506C52.5841 12.3061 52.6103 12.4615 52.6372 12.6217C52.6633 12.7754 52.6894 12.929 52.7163 13.0872C52.771 13.4892 52.7895 13.8629 52.7779 14.2678C52.9172 14.3158 53.0566 14.3638 53.2001 14.4133C53.3572 15.1845 53.3895 15.9558 53.3409 16.7413C53.2944 16.7893 53.248 16.8373 53.2001 16.8868C53.1767 17.3961 53.1767 17.3961 53.2001 17.9053C53.2466 17.9534 53.293 18.0014 53.3409 18.0508C53.4023 18.9176 53.3976 19.7158 53.0594 20.5244C52.9665 20.5244 52.8736 20.5244 52.7779 20.5244C52.7837 20.6715 52.7895 20.8185 52.7955 20.97C52.7771 21.5692 52.6748 21.9967 52.4964 22.5615C52.7287 22.6095 52.9609 22.6575 53.2001 22.707C53.2001 22.803 53.2001 22.899 53.2001 22.998C53.3366 22.995 53.473 22.992 53.6136 22.9889C54.0446 22.998 54.0446 22.998 54.1853 23.1435C54.191 23.4344 54.1913 23.7256 54.1853 24.0165C53.5519 23.9961 52.9186 23.9746 52.2853 23.9528C52.1068 23.9471 51.9283 23.9414 51.7444 23.9355C51.5702 23.9294 51.396 23.9233 51.2166 23.917C51.0574 23.9117 50.8982 23.9064 50.7342 23.9009C50.2446 23.871 50.2446 23.871 49.7674 23.7975C48.9329 23.6881 48.0968 23.7056 47.2569 23.7074C47.0684 23.7072 46.8798 23.707 46.6912 23.7067C46.2827 23.7063 45.8742 23.7063 45.4657 23.7067C44.8009 23.7073 44.1361 23.7069 43.4713 23.7063C42.6313 23.7057 41.7912 23.7054 40.9511 23.7054C39.3012 23.7054 37.6513 23.7036 36.0014 23.7011C35.7415 23.7007 35.4816 23.7003 35.2217 23.7C34.8279 23.6994 34.4341 23.6988 34.0403 23.6982C32.5569 23.6961 31.0736 23.6941 29.5902 23.6923C29.4547 23.6921 29.3191 23.692 29.1795 23.6918C26.9803 23.6893 24.7812 23.6888 22.582 23.6891C20.3238 23.6893 18.0656 23.6867 15.8074 23.6817C14.4146 23.6787 13.0218 23.6779 11.6289 23.68C10.6752 23.6812 9.72147 23.6798 8.76775 23.6763C8.21724 23.6743 7.66678 23.6736 7.11627 23.676C6.61248 23.6782 6.10881 23.677 5.60504 23.6732C5.33613 23.6721 5.06722 23.6745 4.79832 23.677C3.49672 23.6618 3.49672 23.6618 3.05993 23.2415C2.7378 22.7286 2.72718 22.3896 2.72675 21.7797C2.72523 21.6216 2.72524 21.6216 2.7237 21.4603C2.72132 21.1134 2.72404 20.7668 2.72705 20.4198C2.72694 20.1779 2.72659 19.9361 2.72602 19.6942C2.72562 19.1878 2.72769 18.6815 2.73156 18.1751C2.73635 17.5268 2.73551 16.8786 2.73287 16.2303C2.73138 15.731 2.73264 15.2317 2.73476 14.7324C2.73548 14.4934 2.73542 14.2544 2.73454 14.0154C2.73377 13.681 2.73664 13.3469 2.74049 13.0125C2.74136 12.8224 2.74223 12.6324 2.74313 12.4366C2.83456 11.8094 2.90542 11.6234 3.37852 11.2122C3.97615 11.0986 4.57092 11.1144 5.17701 11.1201C5.36557 11.1193 5.55412 11.1182 5.74267 11.1168C6.26131 11.1138 6.77986 11.1153 7.29849 11.1176C7.85763 11.1192 8.41675 11.1167 8.97589 11.1146C9.94498 11.1116 10.914 11.1113 11.8831 11.1128C13.2852 11.1148 14.6872 11.1128 16.0893 11.1096C18.3652 11.1047 20.641 11.1029 22.9169 11.1031C25.1258 11.1034 27.3347 11.1025 29.5436 11.0999C29.7476 11.0996 29.7476 11.0996 29.9557 11.0994C31.4404 11.0976 32.925 11.0955 34.4097 11.0934C34.8035 11.0928 35.1973 11.0922 35.5911 11.0916C35.8507 11.0913 36.1103 11.0909 36.3699 11.0905C38.022 11.0881 39.6741 11.0868 41.3263 11.0868C42.1599 11.0867 42.9936 11.0862 43.8272 11.0856C44.4865 11.0851 45.1458 11.0852 45.8051 11.0858C46.2052 11.086 46.6053 11.0856 47.0053 11.085C47.2753 11.0848 47.5452 11.0853 47.8152 11.0859C47.9758 11.0855 48.1365 11.0852 48.302 11.0848C48.4403 11.0848 48.5787 11.0848 48.7212 11.0848C49.1446 11.0655 49.5462 10.9979 49.9631 10.9212C50.1684 10.9185 50.3738 10.9215 50.5789 10.9303C51.3456 10.9424 52.087 10.8384 52.8435 10.7209C53.326 10.65 53.7216 10.5999 54.1853 10.7757ZM36.3118 11.8014C32.1691 11.8177 28.0264 11.8376 23.8837 11.859C22.1327 11.868 20.3817 11.8767 18.6307 11.8854C15.0479 11.9032 11.465 11.9213 7.88217 11.9397C7.88217 12.3718 7.88217 12.804 7.88217 13.2492C6.5353 13.2492 5.18843 13.2492 3.80074 13.2492C3.80074 16.2262 3.80074 19.2032 3.80074 22.2705C3.56852 22.2705 3.3363 22.2705 3.09704 22.2705C3.14349 22.5105 3.18993 22.7506 3.23778 22.998C18.332 22.998 33.4263 22.998 48.978 22.998C48.978 22.9019 48.978 22.8059 48.978 22.707C49.0647 22.6933 49.1514 22.6796 49.2407 22.6655C49.5506 22.5893 49.5506 22.5893 49.7091 22.3438C50.4051 20.8412 50.4373 19.3176 50.4293 17.678C50.4292 17.5751 50.429 17.4723 50.4288 17.3663C50.4956 14.5888 50.4956 14.5888 49.5409 12.0852C49.0811 11.7792 48.7106 11.7584 48.1701 11.76C47.9203 11.7597 47.9203 11.7597 47.6654 11.7594C47.3895 11.7613 47.3895 11.7613 47.1081 11.7632C46.9098 11.7636 46.7114 11.7638 46.5131 11.7639C45.9632 11.7645 45.4133 11.767 44.8634 11.7698C44.2653 11.7726 43.6673 11.7737 43.0692 11.775C41.7202 11.7784 40.3713 11.7842 39.0223 11.7903C38.1188 11.7944 37.2153 11.7979 36.3118 11.8014Z" fill="#C4C4C3"/>
<path d="M24.6289 14.9951C28.4373 14.9951 32.2457 14.9951 36.1695 14.9951C36.1695 16.5797 36.1695 18.1642 36.1695 19.7967C32.3611 19.7967 28.5527 19.7967 24.6289 19.7967C24.6289 18.2122 24.6289 16.6277 24.6289 14.9951Z" fill="#34A853"/>
<path d="M51.3086 11.6306C51.4068 11.6301 51.505 11.6295 51.6063 11.6289C52.3375 11.6304 52.3375 11.6304 52.4961 11.7943C52.5525 12.0719 52.601 12.3512 52.6456 12.631C52.6704 12.7833 52.6953 12.9356 52.7209 13.0925C52.7714 13.4915 52.7883 13.8664 52.7775 14.2679C52.9169 14.3159 53.0562 14.3639 53.1997 14.4134C53.3568 15.1846 53.3891 15.9559 53.3405 16.7415C53.294 16.7895 53.2476 16.8375 53.1997 16.887C53.1763 17.3962 53.1763 17.3962 53.1997 17.9055C53.2694 17.9775 53.2694 17.9775 53.3405 18.051C53.4019 18.9177 53.3972 19.716 53.059 20.5246C52.9661 20.5246 52.8732 20.5246 52.7775 20.5246C52.7833 20.6716 52.7891 20.8187 52.7951 20.9702C52.7767 21.5694 52.6744 21.9968 52.4961 22.5616C52.6818 22.6096 52.8676 22.6576 53.059 22.7071C53.059 22.8031 53.059 22.8992 53.059 22.9981C52.4848 23.1392 51.9421 23.1677 51.3526 23.1709C51.0951 23.174 51.0951 23.174 50.8325 23.1772C50.385 23.1436 50.385 23.1436 49.9628 22.8526C50.0059 22.7344 50.0491 22.6163 50.0936 22.4945C51.009 19.3653 50.9617 14.8926 49.9628 11.7943C50.392 11.5725 50.8383 11.6279 51.3086 11.6306Z" fill="#282828"/>
<path d="M22.0958 12.3765C24.2954 12.3731 26.495 12.3705 28.6946 12.369C29.7158 12.3682 30.737 12.3672 31.7583 12.3655C32.6481 12.3641 33.5379 12.3631 34.4277 12.3628C34.8991 12.3626 35.3705 12.3622 35.8419 12.3611C36.3673 12.3601 36.8928 12.3599 37.4182 12.36C37.5756 12.3595 37.733 12.3589 37.8952 12.3584C38.0375 12.3586 38.1798 12.3588 38.3264 12.359C38.513 12.3588 38.513 12.3588 38.7034 12.3586C38.9845 12.3765 38.9845 12.3765 39.1252 12.522C39.1385 12.8256 39.1418 13.1296 39.1412 13.4334C39.1412 13.5285 39.1413 13.6236 39.1413 13.7216C39.1412 14.0373 39.1401 14.353 39.139 14.6688C39.1387 14.8871 39.1385 15.1055 39.1384 15.3238C39.1378 15.8996 39.1365 16.4754 39.1349 17.0511C39.1335 17.6383 39.1328 18.2254 39.1321 18.8125C39.1306 19.9652 39.1282 21.118 39.1252 22.2707C36.9073 22.2741 34.6894 22.2767 32.4715 22.2783C31.4417 22.279 30.4119 22.2801 29.3822 22.2817C28.485 22.2832 27.5878 22.2841 26.6905 22.2844C26.2152 22.2846 25.7398 22.2851 25.2645 22.2861C24.7347 22.2872 24.2049 22.2873 23.6751 22.2873C23.5163 22.2878 23.3576 22.2883 23.194 22.2888C22.9788 22.2885 22.9788 22.2885 22.7593 22.2882C22.6338 22.2884 22.5084 22.2885 22.3791 22.2886C22.0958 22.2707 22.0958 22.2707 21.9551 22.1252C21.9411 21.8322 21.9371 21.5386 21.9369 21.2452C21.9364 21.0568 21.936 20.8684 21.9355 20.6742C21.9358 20.467 21.9361 20.2597 21.9364 20.0524C21.9363 19.8412 21.9362 19.6301 21.936 19.419C21.9358 18.9758 21.9361 18.5326 21.9367 18.0895C21.9375 17.5207 21.9371 16.952 21.9362 16.3833C21.9357 15.947 21.9359 15.5108 21.9363 15.0745C21.9363 14.8648 21.9362 14.6551 21.9359 14.4454C21.9355 14.1524 21.9362 13.8594 21.9369 13.5664C21.937 13.3995 21.9371 13.2326 21.9372 13.0606C21.9551 12.6675 21.9551 12.6675 22.0958 12.3765ZM22.518 12.9585C22.5048 13.2398 22.5015 13.5216 22.5021 13.8032C22.5021 13.9863 22.5021 14.1694 22.5021 14.3581C22.5028 14.5541 22.5036 14.7501 22.5043 14.9461C22.5044 15.1233 22.5046 15.3005 22.5047 15.4831C22.5055 16.1481 22.5074 16.8132 22.5092 17.4782C22.5121 18.9637 22.5151 20.4492 22.518 21.9797C27.7662 21.9797 33.0144 21.9797 38.4215 21.9797C38.4215 18.9547 38.4215 15.9297 38.4215 12.813C35.6234 12.8088 35.6234 12.8088 32.8252 12.8059C31.6848 12.805 30.5444 12.804 29.404 12.802C28.4851 12.8004 27.5661 12.7996 26.6472 12.7992C26.2958 12.7989 25.9443 12.7984 25.5929 12.7976C25.1025 12.7966 24.6121 12.7964 24.1217 12.7965C23.9748 12.796 23.828 12.7954 23.6766 12.7949C23.5438 12.7951 23.411 12.7953 23.2741 12.7955C23.158 12.7954 23.0419 12.7952 22.9223 12.7951C22.6568 12.7831 22.6568 12.7831 22.518 12.9585Z" fill="#34A853" fill-opacity="0.6"/>
<path d="M4.1208 11.1182C4.21883 11.1203 4.31685 11.1224 4.41785 11.1246C4.52293 11.124 4.62801 11.1233 4.73627 11.1227C5.08859 11.1215 5.44067 11.1255 5.79296 11.1295C6.0454 11.1297 6.29784 11.1296 6.55028 11.1292C7.23593 11.129 7.92149 11.1332 8.60712 11.1383C9.32351 11.1429 10.0399 11.1433 10.7563 11.1441C12.1131 11.1464 13.4698 11.1524 14.8265 11.1597C16.3711 11.1678 17.9156 11.1718 19.4601 11.1755C22.6375 11.1831 25.8149 11.1959 28.9922 11.2121C28.9922 11.3561 28.9922 11.5002 28.9922 11.6486C28.8629 11.6482 28.7336 11.6478 28.6004 11.6474C25.456 11.6377 22.3117 11.6305 19.1674 11.626C17.6468 11.6237 16.1263 11.6206 14.6057 11.6157C13.2806 11.6113 11.9556 11.6085 10.6305 11.6075C9.92862 11.6069 9.2268 11.6056 8.52497 11.6024C7.86468 11.5995 7.20441 11.5986 6.54411 11.5992C6.30151 11.5991 6.05891 11.5982 5.81631 11.5965C5.48552 11.5944 5.15483 11.5949 4.82404 11.5961C4.63878 11.5957 4.45352 11.5953 4.26265 11.5949C3.7726 11.6518 3.57621 11.7219 3.23699 12.0851C3.19054 12.2291 3.1441 12.3732 3.09625 12.5216C3.32847 12.5216 3.56068 12.5216 3.79994 12.5216C3.84639 12.3295 3.89283 12.1375 3.94068 11.9396C3.94068 12.3237 3.94068 12.7079 3.94068 13.1036C5.14822 13.1036 6.35576 13.1036 7.59989 13.1036C7.59989 12.7195 7.59989 12.3354 7.59989 11.9396C7.64634 11.9396 7.69278 11.9396 7.74063 11.9396C7.74063 12.3717 7.74063 12.8039 7.74063 13.2491C6.4402 13.2491 5.13978 13.2491 3.79994 13.2491C3.79994 16.1781 3.79994 19.1071 3.79994 22.1248C3.47483 22.1248 3.14973 22.1248 2.81477 22.1248C2.80172 20.8094 2.79172 19.494 2.7856 18.1786C2.78266 17.5677 2.77868 16.9569 2.7723 16.3461C2.76618 15.7564 2.76281 15.1668 2.76136 14.5772C2.76032 14.3524 2.75829 14.1276 2.75525 13.9028C2.75115 13.5875 2.7506 13.2724 2.75086 12.9572C2.74961 12.7778 2.74836 12.5985 2.74707 12.4138C2.87183 11.5399 3.25343 11.1321 4.1208 11.1182Z" fill="#BABABA"/>
<path d="M4.80117 11.45C4.95261 11.4493 4.95261 11.4493 5.1071 11.4485C5.44542 11.4475 5.78366 11.4495 6.12197 11.4516C6.36447 11.4515 6.60698 11.4512 6.84948 11.4507C7.50807 11.4499 8.16663 11.4519 8.82522 11.4544C9.51356 11.4566 10.2019 11.4564 10.8903 11.4565C12.0458 11.4571 13.2014 11.4592 14.3569 11.4625C15.8421 11.4667 17.3273 11.4682 18.8125 11.4689C20.0874 11.4695 21.3623 11.4713 22.6372 11.4733C23.0481 11.4739 23.4589 11.4743 23.8698 11.4747C24.514 11.4754 25.1583 11.4769 25.8025 11.479C26.0396 11.4797 26.2767 11.4801 26.5138 11.4802C26.8361 11.4805 27.1583 11.4816 27.4806 11.483C27.6613 11.4834 27.8421 11.4839 28.0283 11.4843C28.4287 11.5034 28.4287 11.5034 28.5695 11.6489C28.8673 11.667 29.1657 11.6748 29.464 11.6788C29.5573 11.6803 29.6507 11.6817 29.7469 11.6832C30.0568 11.6878 30.3667 11.6914 30.6767 11.695C30.8911 11.698 31.1054 11.701 31.3198 11.7041C31.885 11.7122 32.4503 11.7194 33.0155 11.7264C33.5919 11.7337 34.1683 11.7418 34.7447 11.7498C35.8763 11.7655 37.008 11.7803 38.1397 11.7944C38.1397 11.8425 38.1397 11.8905 38.1397 11.94C28.1543 11.94 18.1688 11.94 7.88083 11.94C7.88083 12.3721 7.88083 12.8042 7.88083 13.2495C7.78794 13.2015 7.69505 13.1535 7.59935 13.104C7.32359 13.0916 7.04742 13.0884 6.77141 13.0898C6.52513 13.0905 6.52513 13.0905 6.27388 13.0912C6.10171 13.0924 5.92954 13.0936 5.75215 13.0949C5.57889 13.0955 5.40564 13.0962 5.22713 13.0969C4.79812 13.0986 4.36913 13.101 3.94014 13.104C3.89369 12.9119 3.84725 12.7199 3.7994 12.522C3.56718 12.522 3.33496 12.522 3.0957 12.522C3.14511 12.1517 3.20434 11.9734 3.46191 11.7051C3.92429 11.4288 4.26814 11.4493 4.80117 11.45Z" fill="#CFCFCF"/>
<path d="M3.09651 22.27C3.23584 22.342 3.23584 22.342 3.37799 22.4155C3.37799 22.5596 3.37799 22.7036 3.37799 22.852C11.7379 22.852 20.0978 22.852 28.711 22.852C28.711 22.756 28.711 22.66 28.711 22.561C26.621 22.513 24.5311 22.465 22.3778 22.4155C22.3778 22.3675 22.3778 22.3195 22.3778 22.27C27.8581 22.27 33.3385 22.27 38.985 22.27C38.8456 22.4141 38.7063 22.5581 38.5627 22.7065C43.718 22.7786 43.718 22.7786 48.9774 22.852C48.9774 22.9001 48.9774 22.9481 48.9774 22.9975C33.8832 22.9975 18.7889 22.9975 3.23725 22.9975C3.19081 22.7575 3.14436 22.5174 3.09651 22.27Z" fill="#34A853"/>
<path d="M2.81445 12.6675C3.13956 12.6675 3.46467 12.6675 3.79963 12.6675C3.79963 15.7885 3.79963 18.9096 3.79963 22.1252C3.47452 22.1252 3.14941 22.1252 2.81445 22.1252C2.81445 19.0042 2.81445 15.8831 2.81445 12.6675Z" fill="#4B4B4B"/>
<path d="M51.2642 11.6294C51.3919 11.6298 51.5196 11.6301 51.6512 11.6305C51.8428 11.63 51.8428 11.63 52.0382 11.6294C52.3549 11.6487 52.3549 11.6487 52.4956 11.7942C52.5521 12.0718 52.6006 12.351 52.6452 12.6309C52.67 12.7832 52.6949 12.9355 52.7205 13.0924C52.7709 13.4914 52.7879 13.8662 52.7771 14.2678C52.9165 14.3158 53.0558 14.3638 53.1993 14.4133C53.4043 15.42 53.5087 16.3928 53.0586 17.3234C52.5477 17.3234 52.0368 17.3234 51.5105 17.3234C51.4873 16.999 51.4873 16.999 51.4637 16.668C51.3487 15.1429 51.21 13.6598 50.8755 12.1682C50.8528 12.0448 50.8301 11.9214 50.8068 11.7942C50.9475 11.6487 50.9475 11.6487 51.2642 11.6294Z" fill="#3E3E3E"/>
<path d="M24.6289 14.9951C28.4373 14.9951 32.2457 14.9951 36.1695 14.9951C36.1695 16.5797 36.1695 18.1642 36.1695 19.7967C32.3611 19.7967 28.5527 19.7967 24.6289 19.7967C24.6289 18.2122 24.6289 16.6277 24.6289 14.9951ZM24.9104 15.2861C24.9104 16.6786 24.9104 18.0711 24.9104 19.5057C28.533 19.5057 32.1556 19.5057 35.888 19.5057C35.888 18.1133 35.888 16.7208 35.888 15.2861C32.2654 15.2861 28.6428 15.2861 24.9104 15.2861Z" fill="#D4D4D4"/>
<path d="M54.1834 10.7762C54.1895 11.0186 54.1892 11.2612 54.1834 11.5037C53.9296 11.7662 53.5407 11.6837 53.1977 11.6952C53.0267 11.7013 52.8557 11.7074 52.6796 11.7137C52.4995 11.7194 52.3194 11.7251 52.1339 11.731C51.9533 11.7373 51.7727 11.7436 51.5866 11.7501C51.1387 11.7656 50.6907 11.7804 50.2427 11.7947C50.2427 12.2303 50.3136 12.6199 50.3929 13.0461C50.7513 15.0465 50.7061 17.0426 50.665 19.0699C50.6185 19.0699 50.5721 19.0699 50.5242 19.0699C50.5207 18.9569 50.5172 18.844 50.5135 18.7277C50.4971 18.2112 50.4799 17.6948 50.4627 17.1783C50.4571 17.0007 50.4516 16.8231 50.4459 16.6401C50.373 14.2335 50.373 14.2335 49.3983 12.0857C49.0148 11.9535 48.7478 11.9135 48.3499 11.8941C48.2306 11.8881 48.1113 11.882 47.9884 11.8757C47.8644 11.87 47.7404 11.8642 47.6127 11.8583C47.4871 11.8521 47.3614 11.8458 47.232 11.8393C46.922 11.8239 46.6121 11.809 46.3021 11.7947C46.3021 11.6987 46.3021 11.6026 46.3021 11.5037C43.7941 11.5037 41.2861 11.5037 38.7021 11.5037C38.7021 11.4557 38.7021 11.4076 38.7021 11.3582C38.7994 11.3567 38.8967 11.3552 38.9969 11.3536C39.9241 11.3392 40.8512 11.3243 41.7784 11.3088C42.2548 11.3008 42.7312 11.2931 43.2076 11.2858C46.5971 11.2833 46.5971 11.2833 49.9613 10.9217C50.1665 10.919 50.3719 10.922 50.577 10.9308C51.3438 10.9428 52.0851 10.8389 52.8417 10.7213C53.3241 10.6505 53.7198 10.6004 54.1834 10.7762Z" fill="#BAB0A5"/>
<path d="M29.0105 15.7217C29.18 15.745 29.18 15.745 29.353 15.7689C29.5231 15.7905 29.5231 15.7905 29.6966 15.8126C29.9775 15.8689 29.9775 15.8689 30.1183 16.0144C30.1324 16.4221 30.1378 16.8254 30.1359 17.233C30.1367 17.4035 30.1367 17.4035 30.1375 17.5774C30.1367 18.0626 30.1269 18.4612 29.9775 18.9245C29.7547 18.9324 29.5319 18.938 29.309 18.9427C29.1849 18.946 29.0608 18.9494 28.933 18.9529C28.552 18.923 28.3413 18.8122 28.0072 18.6335C27.9143 18.6815 27.8214 18.7295 27.7257 18.779C27.7257 17.9627 27.7257 17.1464 27.7257 16.3054C27.9579 16.2094 28.1901 16.1133 28.4294 16.0144C28.7109 15.7234 28.7109 15.7234 29.0105 15.7217Z" fill="#E5E7E6"/>
<path d="M53.0581 17.4692C53.4564 18.1654 53.3967 18.8655 53.3396 19.6518C53.1989 20.1883 53.1989 20.1883 53.0581 20.5248C52.9652 20.5248 52.8723 20.5248 52.7766 20.5248C52.7854 20.7454 52.7854 20.7454 52.7942 20.9704C52.7758 21.5696 52.6736 21.9971 52.4952 22.5619C52.6809 22.6099 52.8667 22.6579 53.0581 22.7074C53.0581 22.8034 53.0581 22.8994 53.0581 22.9984C52.4376 23.1588 51.8641 23.155 51.2285 23.1439C51.3678 23.0719 51.3678 23.0719 51.51 22.9984C51.5071 22.8333 51.5042 22.6683 51.5012 22.4982C51.51 21.9798 51.51 21.9798 51.6507 21.8343C52.0053 20.4624 52.0159 19.025 52.0729 17.6147C52.4952 17.4692 52.4952 17.4692 53.0581 17.4692Z" fill="#595959"/>
<path d="M50.9471 11.6487C51.3118 13.556 51.6085 15.3747 51.5101 17.3233C52.0209 17.3233 52.5318 17.3233 53.0582 17.3233C53.0582 17.3713 53.0582 17.4193 53.0582 17.4688C52.3151 17.4688 51.572 17.4688 50.8064 17.4688C50.769 17.1567 50.7316 16.8446 50.6931 16.523C50.656 16.2172 50.6187 15.9114 50.5813 15.6056C50.5557 15.3948 50.5303 15.184 50.5052 14.9731C50.3153 13.3679 50.3153 13.3679 49.9619 11.7942C50.3085 11.615 50.5642 11.6382 50.9471 11.6487Z" fill="#212121"/>
<path d="M33.4958 15.8687C33.728 15.9167 33.9602 15.9647 34.1995 16.0142C34.2459 16.2062 34.2924 16.3983 34.3402 16.5962C34.526 16.5962 34.7118 16.5962 34.9032 16.5962C34.9032 16.7882 34.9032 16.9803 34.9032 17.1782C34.4279 17.1 33.9607 17.0166 33.4958 16.8872C33.5219 16.9742 33.5481 17.0612 33.575 17.1509C33.6365 17.4692 33.6365 17.4692 33.4958 17.9057C33.728 17.9057 33.9602 17.9057 34.1995 17.9057C34.1995 17.8097 34.1995 17.7136 34.1995 17.6147C34.4317 17.5667 34.6639 17.5187 34.9032 17.4692C34.9032 17.7093 34.9032 17.9494 34.9032 18.1967C34.7174 18.1967 34.5316 18.1967 34.3402 18.1967C34.2938 18.3888 34.2473 18.5808 34.1995 18.7787C33.9673 18.8267 33.7351 18.8748 33.4958 18.9242C33.461 18.8342 33.4261 18.7442 33.3902 18.6514C33.2129 18.2755 33.2129 18.2755 32.6514 18.0512C32.6514 17.523 32.6514 16.9948 32.6514 16.4507C32.8836 16.4027 33.1158 16.3546 33.3551 16.3052C33.4015 16.1611 33.4479 16.0171 33.4958 15.8687Z" fill="#CCCCCC"/>
<path d="M4.08124 12.0854C5.24234 12.0854 6.40344 12.0854 7.59972 12.0854C7.59972 12.4216 7.59972 12.7577 7.59972 13.104C6.39218 13.104 5.18464 13.104 3.94051 13.104C3.98695 12.7679 4.03339 12.4317 4.08124 12.0854Z" fill="#D7D7D7"/>
<path d="M51.7911 11.6489C52.1395 11.721 52.1395 11.721 52.4948 11.7944C52.5425 12.0701 52.5892 12.346 52.6356 12.622C52.6617 12.7756 52.6878 12.9292 52.7147 13.0875C52.7694 13.4894 52.7879 13.8631 52.7763 14.268C52.9156 14.316 53.055 14.364 53.1985 14.4135C53.3541 15.1776 53.4157 15.9633 53.3393 16.7416C53.2464 16.8856 53.1535 17.0296 53.0578 17.1781C52.872 17.1781 52.6862 17.1781 52.4948 17.1781C52.487 17.0562 52.4793 16.9343 52.4712 16.8087C52.4421 16.3569 52.4124 15.9051 52.3823 15.4534C52.3694 15.2578 52.3567 15.0622 52.3442 14.8666C52.3263 14.5855 52.3075 14.3046 52.2887 14.0236C52.2776 13.8544 52.2666 13.6853 52.2552 13.511C52.2373 13.1111 52.2373 13.1111 52.0726 12.813C52.0755 12.6689 52.0784 12.5249 52.0814 12.3764C52.121 11.9228 52.121 11.9228 51.7911 11.6489Z" fill="#717171"/>
<path d="M54.1844 10.776C54.1904 11.0185 54.1901 11.2611 54.1844 11.5035C54.0436 11.649 54.0436 11.649 53.6271 11.6656C53.4451 11.6648 53.2631 11.664 53.0755 11.6633C52.9305 11.6629 52.9305 11.6629 52.7826 11.6626C52.4729 11.6618 52.1631 11.66 51.8534 11.6581C51.6438 11.6574 51.4343 11.6567 51.2247 11.6562C50.71 11.6545 50.1954 11.652 49.6807 11.649C49.6807 11.409 49.6807 11.1689 49.6807 10.9215C49.7765 10.9249 49.8723 10.9283 49.971 10.9318C50.9521 10.9506 51.8888 10.8733 52.8567 10.7212C53.3353 10.6498 53.7242 10.6025 54.1844 10.776Z" fill="#C0C0C0"/>
<path d="M52.0818 17.4595C52.2865 17.464 52.2865 17.464 52.4953 17.4686C52.3559 17.5166 52.2166 17.5646 52.073 17.6141C52.0763 17.7846 52.0796 17.9551 52.0829 18.1307C52.0998 19.4008 52.076 20.5907 51.7916 21.8337C51.7682 21.9588 51.7448 22.0839 51.7206 22.2128C51.6508 22.5612 51.6508 22.5612 51.5101 22.9977C51.2198 23.0977 51.2198 23.0977 50.9471 23.1432C51.0202 22.4884 51.1116 21.8451 51.2286 21.1971C51.3806 20.2904 51.4271 19.3876 51.462 18.4695C51.5027 17.4717 51.5027 17.4717 52.0818 17.4595Z" fill="#444444"/>
<path d="M4.7782 11.4605C4.91758 11.4615 4.91758 11.4615 5.05978 11.4624C5.35521 11.4648 5.6505 11.4703 5.9459 11.4759C6.14674 11.4781 6.34759 11.4801 6.54844 11.4818C7.0396 11.4866 7.53068 11.4942 8.0218 11.5032C7.97535 12.0794 7.92891 12.6555 7.88106 13.2492C7.83461 13.2492 7.78817 13.2492 7.74032 13.2492C7.67065 12.673 7.67065 12.673 7.59958 12.0852C6.43848 12.0852 5.27739 12.0852 4.0811 12.0852C4.03466 12.1812 3.98822 12.2772 3.94037 12.3762C3.79963 12.5217 3.79963 12.5217 3.43898 12.5308C3.26917 12.5263 3.26917 12.5263 3.09593 12.5217C3.14549 12.1502 3.20472 11.9728 3.46359 11.7042C3.91951 11.4314 4.25343 11.4536 4.7782 11.4605Z" fill="#C5C5C5"/>
<path d="M52.6364 17.6143C52.7757 17.6143 52.915 17.6143 53.0586 17.6143C53.4771 18.2633 53.3946 18.8898 53.3401 19.6513C53.1993 20.1879 53.1993 20.1879 53.0586 20.5243C52.9657 20.5243 52.8728 20.5243 52.7771 20.5243C52.7858 20.7449 52.7858 20.7449 52.7947 20.9699C52.7763 21.5692 52.674 21.9966 52.4956 22.5614C52.6814 22.6094 52.8672 22.6574 53.0586 22.7069C53.0586 22.8029 53.0586 22.8989 53.0586 22.9979C52.4316 23.0699 52.4316 23.0699 51.7919 23.1434C51.8848 22.9993 51.9777 22.8553 52.0734 22.7069C52.1296 22.4237 52.1755 22.1383 52.2142 21.852C52.3264 21.025 52.3264 21.025 52.5033 20.6261C52.7001 20.0453 52.6661 19.4885 52.654 18.8783C52.6527 18.7567 52.6514 18.6351 52.6501 18.5097C52.6468 18.2112 52.6418 17.9127 52.6364 17.6143Z" fill="#848484"/>
<path d="M53.0595 22.707C53.1059 22.8031 53.1524 22.8991 53.2002 22.998C53.3367 22.995 53.4731 22.992 53.6136 22.9889C54.0447 22.998 54.0447 22.998 54.1854 23.1435C54.1911 23.4345 54.1914 23.7256 54.1854 24.0166C53.5432 23.9963 52.9011 23.9747 52.259 23.9529C52.077 23.9472 51.8949 23.9415 51.7074 23.9356C51.5318 23.9295 51.3563 23.9234 51.1755 23.9171C51.014 23.9118 50.8526 23.9064 50.6863 23.9009C50.2912 23.8742 49.9263 23.8172 49.541 23.7256C49.6339 23.5335 49.7268 23.3414 49.8225 23.1435C49.8689 23.2396 49.9154 23.3356 49.9632 23.4345C50.985 23.3865 52.0068 23.3385 53.0595 23.289C53.013 23.193 52.9666 23.097 52.9188 22.998C52.9652 22.902 53.0116 22.806 53.0595 22.707Z" fill="#CECCCB"/>
<path d="M51.5107 11.6489C51.859 11.721 51.859 11.721 52.2144 11.7944C52.2115 11.9565 52.2086 12.1185 52.2056 12.2855C52.1773 12.7885 52.1773 12.7885 52.3551 13.104C52.3886 13.4897 52.4148 13.8724 52.4343 14.2589C52.4403 14.3696 52.4463 14.4804 52.4524 14.5945C52.4962 15.4561 52.5121 16.3153 52.4959 17.1781C52.6817 17.2261 52.8674 17.2741 53.0588 17.3236C52.8266 17.3236 52.5944 17.3236 52.3551 17.3236C52.1274 16.9061 52.0362 16.5937 52.0203 16.1158C52.0155 15.9975 52.0107 15.8793 52.0058 15.7574C52.0021 15.635 51.9983 15.5126 51.9945 15.3865C51.9655 14.5665 51.9202 13.7689 51.7922 12.9585C51.7457 12.9585 51.6993 12.9585 51.6515 12.9585C51.605 12.5263 51.5586 12.0942 51.5107 11.6489Z" fill="#5C5C5C"/>
<path d="M38.1396 22.998C38.2789 22.998 38.4182 22.998 38.5618 22.998C38.5618 23.0941 38.5618 23.1901 38.5618 23.2891C39.3049 23.2891 40.048 23.2891 40.8136 23.2891C40.8136 23.3371 40.8136 23.3851 40.8136 23.4346C38.3833 23.6361 35.9543 23.5689 33.5196 23.5226C32.96 23.5122 32.4003 23.5028 31.8407 23.4934C30.7502 23.4748 29.6598 23.4551 28.5693 23.4346C28.5693 23.3385 28.5693 23.2425 28.5693 23.1436C28.6872 23.1439 28.805 23.1442 28.9264 23.1445C30.0344 23.1474 31.1424 23.1497 32.2504 23.1511C32.8201 23.1519 33.3898 23.1529 33.9595 23.1545C34.5089 23.1561 35.0582 23.157 35.6075 23.1574C35.8176 23.1576 36.0276 23.1582 36.2377 23.1589C36.5309 23.16 36.8241 23.1601 37.1173 23.1601C37.3681 23.1606 37.3681 23.1606 37.6239 23.161C37.9878 23.1877 37.9878 23.1877 38.1396 22.998Z" fill="#A8A8A8"/>
<path d="M28.7102 15.7231C28.9961 15.7356 28.9961 15.7356 29.3435 15.7777C29.5155 15.7974 29.5155 15.7974 29.691 15.8175C29.9768 15.8686 29.9768 15.8686 30.1176 16.0142C30.1374 16.4027 30.1236 16.7889 30.1176 17.1782C29.8735 17.2731 29.8735 17.2731 29.5546 17.3237C29.2534 17.1787 29.2534 17.1787 28.9565 16.969C28.8571 16.9002 28.7576 16.8313 28.6552 16.7604C28.5805 16.7062 28.5057 16.652 28.4287 16.5962C28.5519 15.8868 28.5519 15.8868 28.7102 15.7231Z" fill="#CBCCCC"/>
<path d="M28.2274 17.4595C28.3972 17.464 28.3972 17.464 28.5705 17.4686C28.5705 17.6126 28.5705 17.7567 28.5705 17.9051C28.8027 17.9531 29.0349 18.0011 29.2742 18.0506C29.3621 18.3234 29.3621 18.3234 29.4149 18.6326C29.322 18.7286 29.2291 18.8247 29.1334 18.9236C28.7992 18.869 28.7992 18.869 28.4297 18.7781C28.244 18.7781 28.0582 18.7781 27.8668 18.7781C27.8203 18.7781 27.7739 18.7781 27.7261 18.7781C27.7123 17.8829 27.7123 17.8829 27.7261 17.6141C27.8668 17.4686 27.8668 17.4686 28.2274 17.4595Z" fill="#C8C9C9"/>
<path d="M46.8662 22.9983C47.2298 22.9944 47.5933 22.9915 47.9569 22.9892C48.0596 22.988 48.1623 22.9868 48.2681 22.9855C48.7643 22.9832 49.2039 23.0051 49.681 23.1438C49.6345 23.3359 49.5881 23.5279 49.5403 23.7258C48.6578 23.6778 47.7754 23.6298 46.8662 23.5803C46.8662 23.3882 46.8662 23.1962 46.8662 22.9983Z" fill="#B8A898"/>
<path d="M53.0577 17.6142C52.9183 17.6142 52.779 17.6142 52.6354 17.6142C52.6489 17.7948 52.6623 17.9755 52.6761 18.1616C52.692 18.4005 52.7077 18.6394 52.7234 18.8783C52.7325 18.9971 52.7416 19.1159 52.7509 19.2384C52.7923 19.8987 52.7838 20.3542 52.4947 20.9608C52.441 21.2992 52.3927 21.6387 52.354 21.9793C52.3075 21.9793 52.2611 21.9793 52.2132 21.9793C52.2132 20.5388 52.2132 19.0984 52.2132 17.6142C52.5638 17.433 52.6933 17.5012 53.0577 17.6142ZM52.0725 21.9793C52.1189 21.9793 52.1654 21.9793 52.2132 21.9793C52.2132 22.3154 52.2132 22.6516 52.2132 22.9979C52.0739 22.9979 51.9346 22.9979 51.791 22.9979C51.9142 22.3067 51.9142 22.3067 52.0725 21.9793Z" fill="#6C6C6C"/>
<path d="M28.9925 11.2124C28.9925 11.3565 28.9925 11.5005 28.9925 11.6489C26.1594 11.6489 23.3263 11.6489 20.4074 11.6489C20.4074 11.5529 20.4074 11.4568 20.4074 11.3579C21.4644 11.3389 22.5214 11.3199 23.5784 11.301C24.0692 11.2922 24.56 11.2834 25.0508 11.2746C25.615 11.2644 26.1792 11.2543 26.7434 11.2442C26.9198 11.241 27.0961 11.2379 27.2778 11.2346C27.5229 11.2302 27.5229 11.2302 27.773 11.2258C27.9171 11.2232 28.0611 11.2206 28.2096 11.2179C28.4705 11.2139 28.7315 11.2124 28.9925 11.2124Z" fill="#ABABAB"/>
<path d="M38.7031 11.3579C41.3968 11.3579 44.0906 11.3579 46.866 11.3579C46.866 11.502 46.866 11.646 46.866 11.7944C46.6802 11.7944 46.4944 11.7944 46.303 11.7944C46.303 11.6984 46.303 11.6024 46.303 11.5034C43.795 11.5034 41.2871 11.5034 38.7031 11.5034C38.7031 11.4554 38.7031 11.4074 38.7031 11.3579Z" fill="#B5B5B5"/>
<path d="M32.6512 15.7231C33.3943 15.7231 34.1374 15.7231 34.903 15.7231C34.9495 16.2033 34.9959 16.6835 35.0438 17.1782C34.858 17.0821 34.6722 16.9861 34.4808 16.8872C34.6202 16.8872 34.7595 16.8872 34.903 16.8872C34.903 16.7911 34.903 16.6951 34.903 16.5962C34.7173 16.5962 34.5315 16.5962 34.3401 16.5962C34.2472 16.4041 34.1543 16.212 34.0586 16.0142C33.5128 15.951 33.5128 15.951 33.2494 16.2324C33.1913 16.3044 33.1332 16.3765 33.0734 16.4507C32.9341 16.4026 32.7948 16.3546 32.6512 16.3052C32.6512 16.1131 32.6512 15.921 32.6512 15.7231Z" fill="#DDDEDE"/>
<path d="M32.6513 18.0513C33.0962 18.2506 33.2132 18.3407 33.4957 18.7788C33.7279 18.7308 33.9601 18.6828 34.1994 18.6333C34.2458 18.4892 34.2923 18.3452 34.3401 18.1968C34.5724 18.2448 34.8046 18.2928 35.0438 18.3423C34.9974 18.5824 34.9509 18.8224 34.9031 19.0698C34.2064 19.0698 33.5098 19.0698 32.792 19.0698C32.6991 18.8297 32.6062 18.5896 32.5105 18.3423C32.557 18.2462 32.6034 18.1502 32.6513 18.0513Z" fill="#E0E0E0"/>
<path d="M34.9041 17.4688C34.9041 17.7088 34.9041 17.9489 34.9041 18.1963C34.7183 18.1963 34.5325 18.1963 34.3411 18.1963C34.2947 18.3883 34.2482 18.5804 34.2004 18.7783C33.9682 18.8263 33.7359 18.8743 33.4967 18.9238C33.3383 18.2326 33.3383 18.2326 33.4967 17.9053C33.7289 17.9053 33.9611 17.9053 34.2004 17.9053C34.2004 17.8092 34.2004 17.7132 34.2004 17.6143C34.4819 17.4688 34.4819 17.4688 34.9041 17.4688Z" fill="#9E9E9E"/>
<path d="M11.8228 22.9976C11.8228 23.0936 11.8228 23.1896 11.8228 23.2886C13.727 23.2886 15.6312 23.2886 17.5931 23.2886C17.5931 23.3366 17.5931 23.3846 17.5931 23.4341C15.4103 23.4821 13.2274 23.5301 10.9784 23.5796C10.9784 23.4355 10.9784 23.2915 10.9784 23.1431C11.4006 22.9976 11.4006 22.9976 11.8228 22.9976Z" fill="#B5B5B5"/>
<path d="M4.36322 12.2305C5.2921 12.2305 6.22097 12.2305 7.178 12.2305C7.178 12.3745 7.178 12.5186 7.178 12.667C6.24912 12.667 5.32025 12.667 4.36322 12.667C4.36322 12.5229 4.36322 12.3789 4.36322 12.2305Z" fill="#34A853"/>
<path d="M30.119 17.6145C30.0725 18.0466 30.0261 18.4788 29.9782 18.924C29.6996 18.924 29.4209 18.924 29.1338 18.924C29.157 18.816 29.1802 18.708 29.2042 18.5966C29.2913 18.1689 29.2913 18.1689 29.2745 17.6145C29.556 17.469 29.556 17.469 30.119 17.6145Z" fill="#DEDEDE"/>
<path d="M50.1028 12.8135C50.1957 12.8615 50.2886 12.9095 50.3843 12.959C50.9261 14.8849 50.6916 17.0911 50.6657 19.0701C50.6193 19.0701 50.5729 19.0701 50.525 19.0701C50.5197 18.9008 50.5197 18.9008 50.5143 18.728C50.4979 18.2115 50.4807 17.695 50.4634 17.1786C50.4579 17.001 50.4524 16.8233 50.4467 16.6403C50.4123 15.0402 50.4123 15.0402 50.0852 13.4864C50.0446 13.3604 50.0039 13.2343 49.9621 13.1045C50.0085 13.0085 50.0549 12.9124 50.1028 12.8135Z" fill="#B0B0B0"/>
<path d="M52.4961 22.8525C52.7747 22.9486 53.0534 23.0446 53.3405 23.1435C53.059 23.4346 53.059 23.4346 52.7558 23.4676C52.6334 23.4661 52.5111 23.4645 52.385 23.463C52.2526 23.462 52.1202 23.4611 51.9837 23.4601C51.8451 23.4577 51.7065 23.4553 51.5637 23.4527C51.424 23.4514 51.2843 23.4501 51.1404 23.4488C50.7947 23.4453 50.4491 23.4405 50.1035 23.4346C50.1035 23.2905 50.1035 23.1465 50.1035 22.998C50.2644 22.9997 50.4254 23.0014 50.5912 23.0032C50.801 23.0045 51.0108 23.0058 51.2206 23.0071C51.3269 23.0084 51.4331 23.0096 51.5425 23.0108C51.8135 23.0121 52.0845 23.0056 52.3553 22.998C52.4018 22.95 52.4482 22.902 52.4961 22.8525Z" fill="#B8B8B8"/>
<path d="M51.792 12.8125C51.8384 12.8125 51.8848 12.8125 51.9327 12.8125C52.0643 13.7964 52.1187 14.7723 52.1587 15.7641C52.1639 15.8817 52.1692 15.9993 52.1746 16.1204C52.1789 16.2258 52.1831 16.3312 52.1875 16.4397C52.2147 16.7467 52.2751 17.0266 52.3549 17.3231C52.2156 17.2751 52.0763 17.2271 51.9327 17.1776C51.8849 16.6927 51.8383 16.2076 51.792 15.7226C51.7785 15.5866 51.7651 15.4506 51.7513 15.3105C51.6766 14.5224 51.6229 13.75 51.6512 12.958C51.6977 12.91 51.7441 12.862 51.792 12.8125Z" fill="#4D4D4D"/>
<path d="M49.6797 10.9219C50.655 10.9939 50.655 10.9939 51.65 11.0674C51.65 11.1154 51.65 11.1634 51.65 11.2129C52.068 11.2849 52.068 11.2849 52.4945 11.3584C52.4945 11.4064 52.4945 11.4544 52.4945 11.5039C51.5656 11.5519 50.6367 11.5999 49.6797 11.6494C49.6797 11.4093 49.6797 11.1692 49.6797 10.9219Z" fill="#CCCAC9"/>
<path d="M38.5621 11.2129C38.5621 11.405 38.5621 11.597 38.5621 11.7949C38.4925 11.7718 38.423 11.7488 38.3514 11.725C37.8587 11.6193 37.3679 11.615 36.8666 11.6034C36.7581 11.6003 36.6495 11.5973 36.5377 11.5942C36.1921 11.5847 35.8466 11.5761 35.501 11.5676C35.2662 11.5613 35.0315 11.5549 34.7967 11.5485C34.2223 11.533 33.6478 11.5182 33.0732 11.5039C33.0732 11.4559 33.0732 11.4079 33.0732 11.3584C33.7871 11.3376 34.5009 11.3169 35.2147 11.2962C35.4576 11.2892 35.7005 11.2821 35.9433 11.2751C36.2923 11.2649 36.6413 11.2548 36.9903 11.2447C37.0989 11.2415 37.2076 11.2384 37.3195 11.2351C37.7339 11.2232 38.1475 11.2129 38.5621 11.2129Z" fill="#A2A2A2"/>
<path d="M52.6361 17.6143C52.7754 17.6143 52.9148 17.6143 53.0583 17.6143C53.0583 18.4305 53.0583 19.2468 53.0583 20.0878C52.9654 20.1358 52.8725 20.1839 52.7768 20.2333C52.6071 19.7068 52.6209 19.2257 52.6273 18.6783C52.6279 18.5761 52.6286 18.474 52.6292 18.3688C52.6309 18.1173 52.6334 17.8658 52.6361 17.6143Z" fill="#959595"/>
<path d="M34.1998 16.7412C34.2462 16.8853 34.2927 17.0293 34.3405 17.1777C34.6241 17.2844 34.6241 17.2844 34.9035 17.3232C34.6713 17.4193 34.439 17.5153 34.1998 17.6142C34.1998 17.7103 34.1998 17.8063 34.1998 17.9052C33.9676 17.9052 33.7354 17.9052 33.4961 17.9052C33.4961 17.5691 33.4961 17.233 33.4961 16.8867C33.7283 16.8387 33.9605 16.7907 34.1998 16.7412Z" fill="#E6E6E6"/>
<path d="M28.9925 11.3579C30.3394 11.3579 31.6863 11.3579 33.074 11.3579C33.074 11.4059 33.074 11.4539 33.074 11.5034C32.9925 11.5071 32.9111 11.5107 32.8272 11.5145C30.6955 11.6062 30.6955 11.6062 28.5703 11.7944C28.7096 11.7464 28.849 11.6984 28.9925 11.6489C28.9925 11.5529 28.9925 11.4569 28.9925 11.3579Z" fill="#B8B8B8"/>
<path d="M50.2432 19.9429C50.3361 19.9429 50.429 19.9429 50.5247 19.9429C50.5086 20.2703 50.4906 20.5977 50.4719 20.925C50.4572 21.1985 50.4572 21.1985 50.4422 21.4775C50.3905 21.9232 50.3281 22.1865 50.1025 22.5619C49.9332 21.6168 50.0202 20.8727 50.2432 19.9429Z" fill="#B6B6B6"/>
<path d="M52.6354 13.5405C52.6819 13.5405 52.7283 13.5405 52.7762 13.5405C52.7965 13.7056 52.8168 13.8706 52.8377 14.0407C52.8623 14.5311 52.8623 14.5311 53.0576 14.7046C53.0678 14.9984 53.0694 15.2926 53.0664 15.5867C53.0652 15.7474 53.0639 15.9082 53.0626 16.0738C53.061 16.1981 53.0593 16.3225 53.0576 16.4506C53.0112 16.4506 52.9648 16.4506 52.9169 16.4506C52.9169 16.1625 52.9169 15.8744 52.9169 15.5776C52.824 15.5776 52.7311 15.5776 52.6354 15.5776C52.5069 14.8543 52.5069 14.2638 52.6354 13.5405Z" fill="#A0A0A0"/>
<path d="M52.9179 17.9058C53.0573 17.9538 53.1966 18.0018 53.3402 18.0513C53.3921 19.7277 53.3921 19.7277 53.0587 20.5248C52.9658 20.5248 52.8729 20.5248 52.7772 20.5248C52.8237 20.3808 52.8701 20.2367 52.9179 20.0883C52.9278 19.714 52.9311 19.3439 52.9267 18.9698C52.9258 18.8166 52.9258 18.8166 52.9248 18.6603C52.9232 18.4088 52.9206 18.1573 52.9179 17.9058Z" fill="#5E5E5E"/>
<path d="M28.2883 16.1602C28.4277 16.3522 28.567 16.5443 28.7106 16.7422C28.5346 16.9604 28.5346 16.9604 28.2883 17.1787C28.1026 17.1787 27.9168 17.1787 27.7254 17.1787C27.7254 16.8906 27.7254 16.6025 27.7254 16.3057C27.9112 16.2576 28.0969 16.2096 28.2883 16.1602Z" fill="#CFD0D0"/>
<path d="M52.7764 14.2681C52.9157 14.3161 53.055 14.3641 53.1986 14.4136C53.3574 15.1936 53.353 15.9491 53.3393 16.7416C53.2 16.7896 53.0607 16.8377 52.9171 16.8871C52.9187 16.7346 52.9204 16.5822 52.9221 16.425C52.9234 16.2244 52.9247 16.0238 52.9259 15.8231C52.9271 15.7227 52.9283 15.6223 52.9295 15.5188C52.9316 15.0613 52.9174 14.7054 52.7764 14.2681Z" fill="#5C5C5C"/>
<path d="M33.4962 15.8682C33.7284 15.9162 33.9606 15.9642 34.1999 16.0137C34.1535 16.2537 34.107 16.4938 34.0592 16.7412C33.8269 16.6932 33.5947 16.6452 33.3555 16.5957C33.4019 16.3556 33.4484 16.1155 33.4962 15.8682Z" fill="#7E8080"/>
<path d="M54.1843 10.7762C54.1843 10.8722 54.1843 10.9683 54.1843 11.0672C53.4412 11.0672 52.6981 11.0672 51.9324 11.0672C52.6404 10.7012 53.4095 10.4758 54.1843 10.7762Z" fill="#B5B5B5"/>
<path d="M38.1396 22.9985C38.279 22.9985 38.4183 22.9985 38.5619 22.9985C38.5619 23.0946 38.5619 23.1906 38.5619 23.2895C39.305 23.2895 40.0481 23.2895 40.8137 23.2895C40.8137 23.3376 40.8137 23.3856 40.8137 23.435C39.49 23.5071 39.49 23.5071 38.1396 23.5805C38.1396 23.3885 38.1396 23.1964 38.1396 22.9985Z" fill="#959595"/>
<path d="M51.6516 17.4688C51.7444 17.4688 51.8373 17.4688 51.933 17.4688C51.7974 18.8379 51.7974 18.8379 51.6516 19.5058C51.6051 19.5058 51.5587 19.5058 51.5108 19.5058C51.507 19.1936 51.5043 18.8814 51.502 18.5691C51.5004 18.3952 51.4988 18.2214 51.4971 18.0422C51.5108 17.6143 51.5108 17.6143 51.6516 17.4688Z" fill="#3A3A3A"/>
<path d="M52.6359 15.5776C52.7288 15.5776 52.8217 15.5776 52.9174 15.5776C52.9638 16.1058 53.0103 16.634 53.0581 17.1782C52.9188 17.1782 52.7795 17.1782 52.6359 17.1782C52.6359 16.65 52.6359 16.1218 52.6359 15.5776Z" fill="#7A7A7A"/>
<path d="M28.5704 18.0513C28.6633 18.0513 28.7561 18.0513 28.8518 18.0513C28.8518 18.1953 28.8518 18.3394 28.8518 18.4878C28.9912 18.4878 29.1305 18.4878 29.2741 18.4878C29.2276 18.6318 29.1812 18.7759 29.1333 18.9243C28.9011 18.8763 28.6689 18.8283 28.4296 18.7788C28.4761 18.5387 28.5225 18.2986 28.5704 18.0513Z" fill="#6A6C6B"/>
<path d="M28.0071 18.4873C28.3824 18.6813 28.7577 18.8753 29.133 19.0693C28.715 19.0693 28.297 19.0693 27.8663 19.0693C27.8663 18.6328 27.8663 18.6328 28.0071 18.4873Z" fill="#E1E2E2"/>
<path d="M29.5548 17.4688C29.8335 17.5408 29.8335 17.5408 30.1178 17.6143C30.0713 17.8063 30.0249 17.9984 29.977 18.1963C29.7912 18.1483 29.6055 18.1002 29.4141 18.0508C29.4605 17.8587 29.507 17.6666 29.5548 17.4688Z" fill="#C5C5C5"/>
<path d="M28.5702 15.8687C28.7096 15.8687 28.8489 15.8687 28.9924 15.8687C29.0389 16.1567 29.0853 16.4448 29.1332 16.7417C28.901 16.6937 28.6687 16.6456 28.4295 16.5962C28.4759 16.3561 28.5224 16.116 28.5702 15.8687Z" fill="#676969"/>
<path d="M27.8662 15.7236C28.1449 15.7236 28.4236 15.7236 28.7107 15.7236C28.5348 16.0146 28.5348 16.0146 28.2885 16.3056C28.1027 16.3056 27.9169 16.3056 27.7255 16.3056C27.772 16.1136 27.8184 15.9215 27.8662 15.7236Z" fill="#E1E2E2"/>
<path d="M46.8652 22.9985C47.0975 22.9985 47.3297 22.9985 47.5689 22.9985C47.5689 23.1906 47.5689 23.3827 47.5689 23.5805C47.3367 23.5805 47.1045 23.5805 46.8652 23.5805C46.8652 23.3885 46.8652 23.1964 46.8652 22.9985Z" fill="#5F5F5F"/>
<path d="M46.8661 11.2119C47.0984 11.2119 47.3306 11.2119 47.5698 11.2119C47.5698 11.404 47.5698 11.596 47.5698 11.7939C47.3376 11.7939 47.1054 11.7939 46.8661 11.7939C46.8661 11.6019 46.8661 11.4098 46.8661 11.2119Z" fill="#5E5E5E"/>
<path d="M3.23667 11.3579C3.32956 11.502 3.42245 11.646 3.51815 11.7944C3.32463 12.1582 3.32463 12.1582 3.09593 12.5219C3.00304 12.5219 2.91016 12.5219 2.81445 12.5219C2.92001 11.6853 2.92001 11.6853 3.23667 11.3579Z" fill="#BEBEBE"/>
<path d="M53.0588 22.707C53.1052 22.8031 53.1517 22.8991 53.1995 22.998C53.4782 22.998 53.7568 22.998 54.0439 22.998C54.0904 23.1421 54.1368 23.2861 54.1847 23.4345C53.5577 23.2905 53.5577 23.2905 52.918 23.1435C52.9645 22.9995 53.0109 22.8554 53.0588 22.707Z" fill="#C9C9C9"/>
<path d="M11.8228 22.9976C11.7299 23.1896 11.6371 23.3817 11.5413 23.5796C11.3556 23.5796 11.1698 23.5796 10.9784 23.5796C10.9784 23.4355 10.9784 23.2915 10.9784 23.1431C11.4006 22.9976 11.4006 22.9976 11.8228 22.9976Z" fill="#7E7E7E"/>
<path d="M3.37816 11.7944C3.47105 11.7944 3.56393 11.7944 3.65964 11.7944C3.65964 12.0345 3.65964 12.2746 3.65964 12.522C3.47386 12.522 3.28808 12.522 3.09668 12.522C3.21983 11.9581 3.21983 11.9581 3.37816 11.7944Z" fill="#E4E4E4"/>
</g>
<defs>
<clipPath id="clip0_29428_4336">
<rect width="55.8734" height="17.4604" fill="white" transform="translate(0 8.59326)"/>
</clipPath>
</defs>
</svg>
