<svg width="246" height="184" viewBox="0 0 246 184" fill="none" xmlns="http://www.w3.org/2000/svg">
<path d="M42.9266 123.21V121.171C42.9266 93.0641 42.9266 50.0604 42.9266 21.5014C42.9281 18.6824 42.3739 15.8906 41.2958 13.2859C40.2177 10.6812 38.6368 8.31454 36.6435 6.3212C34.6502 4.32785 32.2832 2.74701 29.6785 1.66889C27.0738 0.590765 24.2823 0.0366405 21.4633 0.0380888V0.0380888C18.6452 0.0366414 15.8541 0.590445 13.2501 1.66788C10.6462 2.74531 8.28034 4.32532 6.28714 6.3175C4.29394 8.30967 2.71293 10.675 1.63416 13.2785C0.555391 15.8819 -3.71702e-07 18.6722 0 21.4903C0 49.1678 0 88.4254 0 123.21H42.9266Z" fill="white"/>
<path d="M170.526 188.795C182.274 189.011 193.96 187.046 204.992 183C216.095 179.016 225.773 171.841 232.812 162.374C241.122 150.838 245.478 136.924 245.23 122.709C245.23 112.616 245.307 54.6828 245.318 20.0638C245.318 11.635 245.318 4.63863 245.318 0H202.347C202.347 30.0685 202.347 108.495 202.347 119.469C202.359 123.014 201.99 126.549 201.245 130.014C200.227 135.171 197.646 139.89 193.854 143.531C190.061 147.172 185.241 149.557 180.046 150.364C175.781 151.29 171.432 151.774 167.067 151.808C144.193 151.863 121.75 151.874 102.82 151.874H4.75879V188.751H170.45" fill="white"/>
</svg>
