<svg width="153" height="204" viewBox="0 0 153 204" fill="none" xmlns="http://www.w3.org/2000/svg">
<path d="M2 0C0.89543 0 0 0.89543 0 2C0 3.10457 0.89543 4 2 4V2V0ZM128 81.25C128 82.3546 128.895 83.25 130 83.25C131.105 83.25 132 82.3546 132 81.25H130H128ZM132 122.25C132 121.145 131.105 120.25 130 120.25C128.895 120.25 128 121.145 128 122.25H130H132ZM128.586 202.914C129.367 203.695 130.633 203.695 131.414 202.914L144.142 190.186C144.923 189.405 144.923 188.139 144.142 187.358C143.361 186.577 142.095 186.577 141.314 187.358L130 198.672L118.686 187.358C117.905 186.577 116.639 186.577 115.858 187.358C115.077 188.139 115.077 189.405 115.858 190.186L128.586 202.914ZM2 2V4H106V2V0H2V2ZM130 26H128V81.25H130H132V26H130ZM130 122.25H128V201.5H130H132V122.25H130ZM106 2V4C118.15 4 128 13.8497 128 26H130H132C132 11.6406 120.359 0 106 0V2Z" fill="#242424"/>
<path d="M116.814 96.1136H118.809L121.849 101.403H121.974L125.013 96.1136H127.008L122.786 103.182V107.75H121.036V103.182L116.814 96.1136ZM130.677 107.926C129.817 107.926 129.076 107.742 128.455 107.375C127.838 107.004 127.361 106.483 127.023 105.812C126.69 105.138 126.523 104.348 126.523 103.443C126.523 102.549 126.69 101.761 127.023 101.08C127.361 100.398 127.83 99.8655 128.433 99.483C129.039 99.1004 129.747 98.9091 130.558 98.9091C131.05 98.9091 131.527 98.9905 131.989 99.1534C132.451 99.3163 132.866 99.572 133.234 99.9205C133.601 100.269 133.891 100.722 134.103 101.278C134.315 101.831 134.421 102.504 134.421 103.295V103.898H127.484V102.625H132.756C132.756 102.178 132.665 101.782 132.484 101.438C132.302 101.089 132.046 100.814 131.717 100.614C131.391 100.413 131.008 100.312 130.569 100.312C130.092 100.312 129.675 100.43 129.319 100.665C128.967 100.896 128.694 101.199 128.501 101.574C128.311 101.945 128.217 102.348 128.217 102.784V103.778C128.217 104.362 128.319 104.858 128.523 105.267C128.732 105.676 129.022 105.989 129.393 106.205C129.764 106.417 130.198 106.523 130.694 106.523C131.016 106.523 131.309 106.477 131.575 106.386C131.84 106.292 132.069 106.152 132.262 105.966C132.455 105.78 132.603 105.551 132.705 105.278L134.313 105.568C134.184 106.042 133.953 106.456 133.62 106.812C133.29 107.165 132.876 107.439 132.376 107.636C131.879 107.83 131.313 107.926 130.677 107.926ZM142.67 101.153L141.13 101.426C141.066 101.229 140.963 101.042 140.823 100.864C140.687 100.686 140.501 100.54 140.266 100.426C140.032 100.312 139.738 100.256 139.386 100.256C138.905 100.256 138.503 100.364 138.181 100.58C137.859 100.792 137.698 101.066 137.698 101.403C137.698 101.695 137.806 101.93 138.022 102.108C138.238 102.286 138.587 102.432 139.068 102.545L140.454 102.864C141.257 103.049 141.855 103.335 142.249 103.722C142.643 104.108 142.84 104.61 142.84 105.227C142.84 105.75 142.689 106.216 142.386 106.625C142.087 107.03 141.668 107.348 141.13 107.58C140.596 107.811 139.977 107.926 139.272 107.926C138.295 107.926 137.498 107.718 136.88 107.301C136.263 106.881 135.884 106.284 135.744 105.511L137.386 105.261C137.488 105.689 137.698 106.013 138.016 106.233C138.335 106.449 138.749 106.557 139.261 106.557C139.818 106.557 140.263 106.441 140.596 106.21C140.929 105.975 141.096 105.689 141.096 105.352C141.096 105.08 140.994 104.85 140.789 104.665C140.588 104.479 140.28 104.339 139.863 104.244L138.386 103.92C137.571 103.735 136.969 103.439 136.579 103.034C136.193 102.629 135.999 102.116 135.999 101.494C135.999 100.979 136.143 100.528 136.431 100.142C136.719 99.7557 137.117 99.4545 137.624 99.2386C138.132 99.0189 138.713 98.9091 139.369 98.9091C140.312 98.9091 141.054 99.1136 141.596 99.5227C142.138 99.928 142.496 100.472 142.67 101.153Z" fill="black" fill-opacity="0.8"/>
</svg>
